#!OML:ASF H:\Terrain\Patient Classification 1\Animal2\Wednesday\Animal2.ASF
:FULLY-SPECIFIED
:DEGREES
3853
root 9.54212 16.6787 -30.1893 5.27606 -16.3599 5.10233
lowerback 9.54243 -1.59957 -1.78546
upperback 1.90245 -2.31575 -0.197158
thorax -3.30668 -1.13619 1.08096
lowerneck 7.81389 3.8598 14.32
upperneck -4.43127 5.74625 -16.6472
head -1.65888 3.21038 -7.67481
rclavicle -3.28989e-014 5.96354e-015
rhumerus -21.0742 -10.0786 -13.8035
rradius 50.983
rwrist -19.3044
rhand -20.261 12.5767
rfingers 7.12502
rthumb 6.0878 -17.3158
lclavicle -3.28989e-014 5.96354e-015
lhumerus -50.0087 17.6643 1.86957
lradius 52.3577
lwrist 39.0746
lhand -31.931 35.2465
lfingers 7.12502
lthumb -5.18209 65.1632
rfemur -27.1224 0.0301884 2.66923
rtibia 48.5823
rfoot -27.2635 -5.51637
rtoes -16.6425
lfemur -8.1268 -2.70203 0.967359
ltibia 25.3621
lfoot -6.17005 -1.4021
ltoes -35.4095
3854
root 9.58416 16.6247 -30.1833 5.18089 -16.3825 4.89304
lowerback 9.69287 -1.64308 -1.48616
upperback 1.86134 -2.34536 -0.164732
thorax -3.44259 -1.1518 0.956339
lowerneck 7.01137 3.904 14.7586
upperneck -3.93806 5.7915 -16.9013
head -1.35326 3.20037 -7.7941
rclavicle -1.43125e-014 1.31198e-014
rhumerus -21.1678 -9.82928 -14.154
rradius 51.1374
rwrist -19.483
rhand -20.4497 12.3418
rfingers 7.12502
rthumb 5.90564 -17.5559
lclavicle -1.43125e-014 1.31198e-014
lhumerus -50.0038 17.6247 1.98383
lradius 52.4516
lwrist 39.1628
lhand -31.9637 35.0737
lfingers 7.12502
lthumb -5.21367 64.9895
rfemur -27.3974 0.274939 2.68712
rtibia 49.3705
rfoot -27.6364 -5.67301
rtoes -16.1805
lfemur -8.32489 -2.34328 1.01291
ltibia 26.2415
lfoot -7.59725 -0.877509
ltoes -39.3563
3855
root 9.62672 16.5688 -30.1744 5.04924 -16.427 4.84228
lowerback 9.68322 -1.645 -1.41628
upperback 1.85544 -2.3374 -0.0801312
thorax -3.44281 -1.14824 1.00354
lowerneck 7.63406 3.99477 14.2885
upperneck -4.66496 5.88497 -16.6462
head -1.67413 3.27439 -7.66869
rclavicle -2.48481e-015 7.55382e-015
rhumerus -21.3137 -9.73904 -14.2293
rradius 51.1841
rwrist -19.2731
rhand -20.0675 12.7018
rfingers 7.12502
rthumb 6.27465 -17.1853
lclavicle -2.48481e-015 7.55382e-015
lhumerus -50.0217 17.7833 2.16761
lradius 52.4172
lwrist 38.9332
lhand -31.8808 34.7935
lfingers 7.12502
lthumb -5.13368 64.7113
rfemur -27.6789 0.460236 2.51714
rtibia 50.1134
rfoot -27.8857 -6.02291
rtoes -16.8521
lfemur -8.59436 -2.04312 0.865788
ltibia 27.2191
lfoot -8.94042 -0.173151
ltoes -43.3293
3856
root 9.66867 16.5119 -30.1812 4.86651 -16.2502 5.06093
lowerback 9.67706 -1.66686 -1.61869
upperback 1.88651 -2.38562 -0.0565827
thorax -3.3965 -1.17078 1.14638
lowerneck 7.97505 3.96655 14.0379
upperneck -5.24196 5.81182 -16.5196
head -1.9212 3.2541 -7.61109
rclavicle 3.05134e-014 1.43125e-014
rhumerus -21.417 -10.0335 -14.2993
rradius 51.0765
rwrist -18.9263
rhand -19.7481 13.1058
rfingers 7.12502
rthumb 6.58298 -16.7719
lclavicle 3.05134e-014 1.43125e-014
lhumerus -49.9002 17.86 2.47119
lradius 52.4822
lwrist 38.7973
lhand -31.7291 34.7153
lfingers 7.12502
lthumb -4.98716 64.6366
rfemur -27.9507 0.409004 2.08944
rtibia 50.8221
rfoot -28.0669 -6.36945
rtoes -17.85
lfemur -9.07491 -1.86077 0.532633
ltibia 28.2003
lfoot -10.048 -0.269074
ltoes -43.0983
3857
root 9.71293 16.464 -30.1819 4.71828 -16.1431 4.98305
lowerback 9.8179 -1.741 -1.47626
upperback 1.81837 -2.47025 -0.00521825
thorax -3.54656 -1.21174 1.13672
lowerneck 8.15627 3.91343 14.0472
upperneck -5.5277 5.73263 -16.5598
head -2.04514 3.22424 -7.63938
rclavicle 3.04141e-014 3.97569e-015
rhumerus -21.4548 -9.76753 -14.5014
rradius 51.168
rwrist -19.3175
rhand -19.6928 12.961
rfingers 7.12502
rthumb 6.63642 -16.915
lclavicle 3.04141e-014 3.97569e-015
lhumerus -49.9643 17.502 2.67305
lradius 52.6884
lwrist 39.014
lhand -31.4678 34.8102
lfingers 7.12502
lthumb -4.73486 64.7372
rfemur -28.1281 0.516412 1.97784
rtibia 51.4718
rfoot -28.2583 -6.58685
rtoes -18.1943
lfemur -9.44738 -1.6153 0.508016
ltibia 29.1827
lfoot -11.2275 -0.69046
ltoes -41.1643
3858
root 9.75517 16.4204 -30.1771 4.68433 -16.1657 4.6961
lowerback 9.86309 -1.79618 -1.20886
upperback 1.72546 -2.51075 0.144133
thorax -3.6718 -1.23219 1.15041
lowerneck 8.16202 4.00208 14.0211
upperneck -5.4599 5.85125 -16.6716
head -2.00473 3.28797 -7.6705
rclavicle -9.651e-014 3.45885e-014
rhumerus -21.5201 -9.19078 -14.5911
rradius 51.3358
rwrist -19.8212
rhand -19.3453 12.9026
rfingers 7.12502
rthumb 6.97188 -16.9626
lclavicle -9.651e-014 3.45885e-014
lhumerus -50.1083 17.2702 2.82239
lradius 52.825
lwrist 39.1355
lhand -31.3097 34.9172
lfingers 7.12502
lthumb -4.58224 64.8476
rfemur -28.3658 0.748089 2.09537
rtibia 52.0907
rfoot -28.561 -6.75875
rtoes -17.8458
lfemur -9.8179 -1.18607 0.691988
ltibia 30.1971
lfoot -12.481 -0.744993
ltoes -41.4137
3859
root 9.79342 16.3729 -30.1872 4.68038 -16.021 4.51633
lowerback 9.91222 -1.82225 -1.11188
upperback 1.67806 -2.5315 0.248254
thorax -3.74722 -1.24204 1.20954
lowerneck 8.03321 4.01141 14.0614
upperneck -5.50246 5.84943 -16.6862
head -1.99372 3.28211 -7.67865
rclavicle -4.27387e-015 -1.63003e-014
rhumerus -21.7083 -9.14926 -14.6491
rradius 51.1732
rwrist -19.5235
rhand -19.095 13.2831
rfingers 7.12502
rthumb 7.21345 -16.5739
lclavicle -4.27387e-015 -1.63003e-014
lhumerus -49.8464 17.379 2.94896
lradius 52.7224
lwrist 39.0288
lhand -31.0921 34.814
lfingers 7.12502
lthumb -4.37208 64.7489
rfemur -28.6475 0.78128 2.13956
rtibia 52.7104
rfoot -28.8834 -6.93783
rtoes -17.5935
lfemur -10.4292 -0.849658 0.845236
ltibia 31.2538
lfoot -13.4293 -1.03065
ltoes -41.0185
3860
root 9.83322 16.3205 -30.1979 4.5103 -15.8182 4.31523
lowerback 10.2478 -1.84571 -0.98008
upperback 1.57611 -2.549 0.315371
thorax -4.04177 -1.24831 1.22296
lowerneck 8.14825 3.89666 14.2793
upperneck -5.68774 5.71193 -16.7247
head -2.08068 3.21591 -7.7369
rclavicle 3.70733e-014 8.34896e-015
rhumerus -22.0143 -9.18457 -14.6495
rradius 50.8866
rwrist -18.9548
rhand -18.7011 13.7517
rfingers 7.12502
rthumb 7.59368 -16.0919
lclavicle 3.70733e-014 8.34896e-015
lhumerus -49.5283 17.277 3.06222
lradius 52.6463
lwrist 38.8782
lhand -30.7776 34.5075
lfingers 7.12502
lthumb -4.06835 64.4484
rfemur -28.7268 0.888435 2.2122
rtibia 53.3433
rfoot -29.1876 -7.0804
rtoes -17.5729
lfemur -10.9108 -0.761999 1.05728
ltibia 32.349
lfoot -14.2968 -1.77005
ltoes -38.4737
3861
root 9.87821 16.2708 -30.1977 4.36338 -15.7233 4.11774
lowerback 10.4107 -1.86147 -0.778385
upperback 1.52464 -2.54578 0.382532
thorax -4.19164 -1.24742 1.18673
lowerneck 8.08066 3.90517 14.4098
upperneck -5.67418 5.72914 -16.7779
head -2.05676 3.22117 -7.77395
rclavicle 1.43125e-014 3.26007e-014
rhumerus -22.2553 -9.09264 -14.6151
rradius 50.7727
rwrist -18.6275
rhand -18.0491 13.9778
rfingers 7.12502
rthumb 8.22292 -15.8422
lclavicle 1.43125e-014 3.26007e-014
lhumerus -49.358 17.1871 3.21933
lradius 52.6668
lwrist 38.7109
lhand -30.5474 34.2043
lfingers 7.12502
lthumb -3.84609 64.1494
rfemur -28.8459 0.96899 2.23539
rtibia 53.9949
rfoot -29.5628 -6.96467
rtoes -16.8439
lfemur -11.3062 -0.612382 1.22156
ltibia 33.4518
lfoot -15.2662 -2.45089
ltoes -36.3725
3862
root 9.92704 16.2227 -30.1965 4.27694 -15.701 4.08323
lowerback 10.3175 -1.87455 -0.722294
upperback 1.61246 -2.55543 0.403042
thorax -4.04963 -1.25471 1.17206
lowerneck 7.56554 4.03018 14.4312
upperneck -5.54433 5.85543 -16.7463
head -1.91195 3.26208 -7.74576
rclavicle 2.51463e-014 -2.50469e-014
rhumerus -22.3127 -9.18053 -14.6939
rradius 50.7163
rwrist -18.6322
rhand -17.6408 13.9512
rfingers 7.12502
rthumb 8.61696 -15.8529
lclavicle 2.51463e-014 -2.50469e-014
lhumerus -49.203 17.4815 3.25784
lradius 52.6195
lwrist 38.4909
lhand -30.3268 34.0398
lfingers 7.12502
lthumb -3.633 63.9886
rfemur -29.0928 0.873575 2.04291
rtibia 54.6207
rfoot -29.9446 -6.9123
rtoes -16.7935
lfemur -11.7645 -0.353888 1.16641
ltibia 34.5251
lfoot -16.3419 -2.43669
ltoes -37.7583
3863
root 9.97166 16.1717 -30.1982 4.07141 -15.6804 4.14491
lowerback 10.451 -1.83461 -0.880133
upperback 1.59641 -2.52023 0.418127
thorax -4.13369 -1.23409 1.27711
lowerneck 7.38205 4.07692 14.5638
upperneck -5.48882 5.9175 -16.7384
head -1.85086 3.28283 -7.75784
rclavicle 3.926e-014 2.78299e-015
rhumerus -22.4534 -9.32415 -14.6581
rradius 50.5121
rwrist -18.5804
rhand -17.0874 13.9813
rfingers 7.12502
rthumb 9.15104 -15.8002
lclavicle 3.926e-014 2.78299e-015
lhumerus -49.0187 17.5101 3.32933
lradius 52.7099
lwrist 38.3297
lhand -30.1641 33.9978
lfingers 7.12502
lthumb -3.47592 63.9492
rfemur -29.2328 0.834559 1.76993
rtibia 55.2037
rfoot -30.2708 -7.17295
rtoes -17.4143
lfemur -12.1309 -0.115508 1.05477
ltibia 35.5364
lfoot -17.382 -2.42626
ltoes -39.5711
3864
root 10.0103 16.1263 -30.1975 3.90642 -15.6796 3.90754
lowerback 10.7311 -1.75939 -0.744849
upperback 1.46646 -2.40471 0.464114
thorax -4.43146 -1.17511 1.24677
lowerneck 7.54244 4.01659 14.8618
upperneck -5.59762 5.87224 -16.8243
head -1.90436 3.26401 -7.84546
rclavicle 6.24184e-014 -6.75868e-015
rhumerus -22.8263 -9.4701 -14.589
rradius 50.3297
rwrist -18.4147
rhand -16.7216 14.0731
rfingers 7.12502
rthumb 9.50394 -15.6925
lclavicle 6.24184e-014 -6.75868e-015
lhumerus -48.693 17.0731 3.47183
lradius 52.9092
lwrist 38.349
lhand -30.1017 34.0696
lfingers 7.12502
lthumb -3.41567 64.0219
rfemur -29.2956 0.935563 1.86851
rtibia 55.7279
rfoot -30.5712 -7.466
rtoes -17.577
lfemur -12.3857 0.143262 1.33067
ltibia 36.4479
lfoot -18.2166 -3.07084
ltoes -39.0033
3865
root 10.053 16.082 -30.1913 3.74008 -15.6633 3.67441
lowerback 10.985 -1.80758 -0.542346
upperback 1.35834 -2.44204 0.537028
thorax -4.68991 -1.19347 1.22654
lowerneck 7.52838 3.98852 14.9501
upperneck -5.64561 5.82776 -16.9947
head -1.91459 3.24574 -7.91735
rclavicle -1.5704e-014 2.50469e-014
rhumerus -22.9311 -9.43297 -14.5935
rradius 50.2737
rwrist -18.3761
rhand -16.5466 14.1745
rfingers 7.12502
rthumb 9.67283 -15.5834
lclavicle -1.5704e-014 2.50469e-014
lhumerus -48.7064 16.864 3.31225
lradius 52.964
lwrist 38.1186
lhand -29.6931 34.1866
lfingers 7.12502
lthumb -3.02104 64.145
rfemur -29.2961 1.05693 1.92237
rtibia 56.2198
rfoot -30.8866 -7.50903
rtoes -17.6375
lfemur -12.5656 0.260592 1.58177
ltibia 37.2482
lfoot -18.963 -3.95869
ltoes -36.4308
3866
root 10.101 16.0305 -30.185 3.38363 -15.6629 3.93479
lowerback 11.198 -1.85213 -0.86521
upperback 1.33364 -2.53978 0.563603
thorax -4.81661 -1.23408 1.45893
lowerneck 7.4104 4.03674 14.7957
upperneck -5.58999 5.86149 -17.1063
head -1.87404 3.26478 -7.92196
rclavicle -7.40473e-014 -7.95139e-015
rhumerus -22.7452 -9.4729 -14.4607
rradius 50.0435
rwrist -18.3189
rhand -15.482 14.6559
rfingers 7.12502
rthumb 10.6998 -15.0516
lclavicle -7.40473e-014 -7.95139e-015
lhumerus -48.8786 17.0571 3.0912
lradius 52.8697
lwrist 37.6254
lhand -29.0468 33.9846
lfingers 7.12502
lthumb -2.3969 63.9508
rfemur -29.2552 1.05917 1.38279
rtibia 56.7236
rfoot -31.1993 -7.39384
rtoes -17.8301
lfemur -12.6562 0.223959 1.24538
ltibia 37.9645
lfoot -19.7882 -4.28323
ltoes -35.7277
